<svg xmlns="http://www.w3.org/2000/svg" viewBox="0 0 820 360" fill="none">
  <defs>
    <linearGradient id="tbg2" x1="0" y1="0" x2="0" y2="360">
      <stop offset="0%" stop-color="#1a1b26"/>
      <stop offset="100%" stop-color="#16161e"/>
    </linearGradient>
  </defs>

  <!-- Window -->
  <rect width="820" height="360" rx="10" fill="url(#tbg2)"/>
  <!-- Title bar -->
  <rect width="820" height="36" rx="10" fill="#24283b"/>
  <rect y="26" width="820" height="10" fill="#24283b"/>
  <circle cx="20" cy="18" r="6" fill="#f7768e"/>
  <circle cx="40" cy="18" r="6" fill="#e0af68"/>
  <circle cx="60" cy="18" r="6" fill="#9ece6a"/>
  <text x="410" y="22" font-family="'SF Mono', 'Fira Code', monospace" font-size="12" fill="#565f89" text-anchor="middle">argo-cluster-debug — installation check</text>

  <!-- Content -->
  <g transform="translate(24, 52)" font-family="'SF Mono', 'Fira Code', Consolas, monospace" font-size="12.5">

    <!-- Title -->
    <text y="0" fill="#7aa2f7" font-weight="700" font-size="14">Argo CD Cluster Debug Report</text>

    <!-- Summary -->
    <text y="26" fill="#565f89">Cluster</text><text x="140" y="26" fill="#c0caf5">aws-jb-acsacm-1.dev05.red-chesterfield.com</text>
    <text y="44" fill="#565f89">Operator</text><text x="140" y="44" fill="#c0caf5">Red Hat OpenShift GitOps v1.20.4</text>
    <text y="62" fill="#565f89">Namespace</text><text x="140" y="62" fill="#c0caf5">openshift-gitops</text>
    <text y="80" fill="#565f89">Components</text><text x="140" y="80" fill="#c0caf5">7 pods (6 core + 1 rollouts controller)</text>

    <!-- Separator -->
    <line x1="0" y1="96" x2="772" y2="96" stroke="#292e42" stroke-width="1"/>

    <!-- Component table header -->
    <text y="116" fill="#7aa2f7" font-weight="700" font-size="13">Component Status</text>

    <text y="138" fill="#565f89">Component</text>
    <text x="300" y="138" fill="#565f89">Status</text>
    <text x="420" y="138" fill="#565f89">Ready</text>
    <text x="520" y="138" fill="#565f89">Restarts</text>
    <line x1="0" y1="144" x2="600" y2="144" stroke="#292e42" stroke-width="1"/>

    <!-- Rows -->
    <text y="162" fill="#a9b1d6">application-controller</text>
    <rect x="300" y="150" width="62" height="18" rx="4" fill="#9ece6a" opacity="0.15"/>
    <text x="310" y="163" fill="#9ece6a" font-size="11">Running</text>
    <text x="420" y="162" fill="#9ece6a">Yes</text>
    <text x="520" y="162" fill="#565f89">0</text>

    <text y="182" fill="#a9b1d6">applicationset-controller</text>
    <rect x="300" y="170" width="62" height="18" rx="4" fill="#9ece6a" opacity="0.15"/>
    <text x="310" y="183" fill="#9ece6a" font-size="11">Running</text>
    <text x="420" y="182" fill="#9ece6a">Yes</text>
    <text x="520" y="182" fill="#565f89">0</text>

    <text y="202" fill="#a9b1d6">server</text>
    <rect x="300" y="190" width="62" height="18" rx="4" fill="#9ece6a" opacity="0.15"/>
    <text x="310" y="203" fill="#9ece6a" font-size="11">Running</text>
    <text x="420" y="202" fill="#9ece6a">Yes</text>
    <text x="520" y="202" fill="#565f89">0</text>

    <text y="222" fill="#a9b1d6">repo-server</text>
    <rect x="300" y="210" width="62" height="18" rx="4" fill="#9ece6a" opacity="0.15"/>
    <text x="310" y="223" fill="#9ece6a" font-size="11">Running</text>
    <text x="420" y="222" fill="#9ece6a">Yes</text>
    <text x="520" y="222" fill="#565f89">0</text>

    <text y="242" fill="#a9b1d6">redis</text>
    <rect x="300" y="230" width="62" height="18" rx="4" fill="#9ece6a" opacity="0.15"/>
    <text x="310" y="243" fill="#9ece6a" font-size="11">Running</text>
    <text x="420" y="242" fill="#9ece6a">Yes</text>
    <text x="520" y="242" fill="#565f89">0</text>

    <text y="262" fill="#e0af68">argo-rollouts</text>
    <rect x="300" y="250" width="62" height="18" rx="4" fill="#9ece6a" opacity="0.15"/>
    <text x="310" y="263" fill="#9ece6a" font-size="11">Running</text>
    <text x="420" y="262" fill="#9ece6a">Yes</text>
    <text x="520" y="262" fill="#e0af68" font-weight="700">4</text>

    <!-- Separator -->
    <line x1="0" y1="278" x2="772" y2="278" stroke="#292e42" stroke-width="1"/>

    <!-- Findings -->
    <rect x="0" y="288" width="58" height="18" rx="4" fill="#e0af68" opacity="0.2"/>
    <text x="8" y="301" fill="#e0af68" font-size="10" font-weight="700">MEDIUM</text>
    <text x="68" y="301" fill="#a9b1d6">argo-rollouts has 4 restarts — investigate previous logs for OOM/crash</text>
  </g>
</svg>
